%FSLAX34Y34*%
G04 Gerber Fmt 3.4, Leading zero omitted, Abs format*
G04 (created by PCBNEW (2014-02-26 BZR 4721)-product) date Monday, 26 January 2015 19:07:00*
%MOIN*%
G01*
G70*
G90*
G04 APERTURE LIST*
%ADD10C,0.005906*%
%ADD11C,0.011811*%
%ADD12C,0.055000*%
%ADD13R,0.060000X0.060000*%
%ADD14C,0.060000*%
%ADD15O,0.066000X0.132000*%
%ADD16R,0.070000X0.070000*%
%ADD17C,0.070000*%
%ADD18R,0.157480X0.157480*%
%ADD19C,0.019685*%
G04 APERTURE END LIST*
G54D10*
G54D11*
X69952Y-50520D02*
X69952Y-50857D01*
X69952Y-50688D02*
X69361Y-50688D01*
X69446Y-50745D01*
X69502Y-50801D01*
X69530Y-50857D01*
X69361Y-50154D02*
X69361Y-50098D01*
X69389Y-50042D01*
X69417Y-50014D01*
X69474Y-49985D01*
X69586Y-49957D01*
X69727Y-49957D01*
X69839Y-49985D01*
X69895Y-50014D01*
X69924Y-50042D01*
X69952Y-50098D01*
X69952Y-50154D01*
X69924Y-50210D01*
X69895Y-50239D01*
X69839Y-50267D01*
X69727Y-50295D01*
X69586Y-50295D01*
X69474Y-50267D01*
X69417Y-50239D01*
X69389Y-50210D01*
X69361Y-50154D01*
X69361Y-49592D02*
X69361Y-49535D01*
X69389Y-49479D01*
X69417Y-49451D01*
X69474Y-49423D01*
X69586Y-49395D01*
X69727Y-49395D01*
X69839Y-49423D01*
X69895Y-49451D01*
X69924Y-49479D01*
X69952Y-49535D01*
X69952Y-49592D01*
X69924Y-49648D01*
X69895Y-49676D01*
X69839Y-49704D01*
X69727Y-49732D01*
X69586Y-49732D01*
X69474Y-49704D01*
X69417Y-49676D01*
X69389Y-49648D01*
X69361Y-49592D01*
X69558Y-49142D02*
X69952Y-49142D01*
X69614Y-49142D02*
X69586Y-49114D01*
X69558Y-49057D01*
X69558Y-48973D01*
X69586Y-48917D01*
X69642Y-48889D01*
X69952Y-48889D01*
X69642Y-48411D02*
X69642Y-48607D01*
X69952Y-48607D02*
X69361Y-48607D01*
X69361Y-48326D01*
X77432Y-50717D02*
X77432Y-51054D01*
X77432Y-50885D02*
X76841Y-50885D01*
X76926Y-50942D01*
X76982Y-50998D01*
X77010Y-51054D01*
X76841Y-50351D02*
X76841Y-50295D01*
X76870Y-50239D01*
X76898Y-50210D01*
X76954Y-50182D01*
X77066Y-50154D01*
X77207Y-50154D01*
X77320Y-50182D01*
X77376Y-50210D01*
X77404Y-50239D01*
X77432Y-50295D01*
X77432Y-50351D01*
X77404Y-50407D01*
X77376Y-50435D01*
X77320Y-50464D01*
X77207Y-50492D01*
X77066Y-50492D01*
X76954Y-50464D01*
X76898Y-50435D01*
X76870Y-50407D01*
X76841Y-50351D01*
X76841Y-49789D02*
X76841Y-49732D01*
X76870Y-49676D01*
X76898Y-49648D01*
X76954Y-49620D01*
X77066Y-49592D01*
X77207Y-49592D01*
X77320Y-49620D01*
X77376Y-49648D01*
X77404Y-49676D01*
X77432Y-49732D01*
X77432Y-49789D01*
X77404Y-49845D01*
X77376Y-49873D01*
X77320Y-49901D01*
X77207Y-49929D01*
X77066Y-49929D01*
X76954Y-49901D01*
X76898Y-49873D01*
X76870Y-49845D01*
X76841Y-49789D01*
X77038Y-49339D02*
X77432Y-49339D01*
X77095Y-49339D02*
X77066Y-49311D01*
X77038Y-49254D01*
X77038Y-49170D01*
X77066Y-49114D01*
X77123Y-49086D01*
X77432Y-49086D01*
X77123Y-48607D02*
X77123Y-48804D01*
X77432Y-48804D02*
X76841Y-48804D01*
X76841Y-48523D01*
G54D12*
X68503Y-48606D03*
X68503Y-50606D03*
X75787Y-48803D03*
X75787Y-50803D03*
G54D13*
X76665Y-44094D03*
G54D14*
X77665Y-44094D03*
G54D15*
X70792Y-48729D03*
X71792Y-48729D03*
X72792Y-48729D03*
G54D16*
X64763Y-48606D03*
G54D17*
X64763Y-50606D03*
G54D13*
X66944Y-43897D03*
G54D14*
X65944Y-43897D03*
X64944Y-43897D03*
G54D18*
X71850Y-41732D03*
G54D19*
X68503Y-48606D02*
X70669Y-48606D01*
X70669Y-48606D02*
X70792Y-48729D01*
X64763Y-48606D02*
X68503Y-48606D01*
X64944Y-43897D02*
X64944Y-48425D01*
X64944Y-48425D02*
X64763Y-48606D01*
X75787Y-48803D02*
X75787Y-44972D01*
X75787Y-44972D02*
X76665Y-44094D01*
X72792Y-48729D02*
X75713Y-48729D01*
X75713Y-48729D02*
X75787Y-48803D01*
M02*
